<?xml version="1.0" encoding="UTF-8" standalone="no" ?>
<!DOCTYPE svg PUBLIC "-//W3C//DTD SVG 1.1//EN" "http://www.w3.org/Graphics/SVG/1.1/DTD/svg11.dtd">
<svg xmlns="http://www.w3.org/2000/svg" xmlns:xlink="http://www.w3.org/1999/xlink" version="1.1" width="1080" height="1080" viewBox="0 0 1080 1080" xml:space="preserve">
<desc>Created with Fabric.js 5.2.4</desc>
<defs>
</defs>
<g transform="matrix(1 0 0 1 540 540)" id="b449131f-e4b3-4d98-860b-f4572fd0cea4"  >
</g>
<g transform="matrix(1 0 0 1 540 540)" id="3bb19404-a1f6-4069-9a61-bc28502e315a"  >
<rect style="stroke: none; stroke-width: 1; stroke-dasharray: none; stroke-linecap: butt; stroke-dashoffset: 0; stroke-linejoin: miter; stroke-miterlimit: 4; fill: rgb(255,255,255); fill-rule: nonzero; opacity: 1; visibility: hidden;" vector-effect="non-scaling-stroke"  x="-540" y="-540" rx="0" ry="0" width="1080" height="1080" />
</g>
<g transform="matrix(1.65 0 0 1.65 175.53 854.26)"  >
<g style="" vector-effect="non-scaling-stroke"   >
		<g transform="matrix(1 0 0 1 0 0)"  >
<rect style="stroke: none; stroke-width: 1; stroke-dasharray: none; stroke-linecap: butt; stroke-dashoffset: 0; stroke-linejoin: miter; stroke-miterlimit: 4; fill: rgb(255,255,255); fill-rule: nonzero; opacity: 1; visibility: hidden;" vector-effect="non-scaling-stroke"  x="-540" y="-540" rx="0" ry="0" width="1080" height="1080" />
</g>
		<g transform="matrix(18.84 0 0 18.84 220.72 -190.48)"  >
<path style="stroke: rgb(0,0,0); stroke-width: 0; stroke-dasharray: none; stroke-linecap: butt; stroke-dashoffset: 0; stroke-linejoin: miter; stroke-miterlimit: 4; fill: rgb(222,219,219); fill-rule: nonzero; opacity: 1;" vector-effect="non-scaling-stroke"  transform=" translate(-12.38, -12.38)" d="M 0 3.875 C 0 2.771 0.896 1.875 2 1.875 L 22.75 1.875 C 23.854 1.875 24.75 2.771 24.75 3.875 C 24.75 4.979 23.854 5.875 22.75 5.875 L 2 5.875 C 0.896 5.875 0 4.979 0 3.875 z M 22.75 10.375 L 2 10.375 C 0.8959999999999999 10.375 0 11.271 0 12.375 C 0 13.479 0.896 14.375 2 14.375 L 22.75 14.375 C 23.854 14.375 24.75 13.479 24.75 12.375 C 24.75 11.271 23.855 10.375 22.75 10.375 z M 22.75 18.875 L 2 18.875 C 0.8959999999999999 18.875 0 19.771 0 20.875 C 0 21.979 0.896 22.875 2 22.875 L 22.75 22.875 C 23.854 22.875 24.75 21.979 24.75 20.875 C 24.75 19.771 23.855 18.875 22.75 18.875 z" stroke-linecap="round" />
</g>
</g>
</g>
</svg>